<svg width="115" height="40" viewBox="0 0 115 40" fill="none" xmlns="http://www.w3.org/2000/svg">
<g clip-path="url(#clip0_913_1028)">
<path d="M32.569 32.6316C33.2112 32.6316 33.7428 32.8491 34.1691 33.2787C34.606 33.7083 34.8166 34.244 34.8166 34.8805C34.8166 35.5169 34.606 36.042 34.1691 36.4823C33.7428 36.9119 33.2112 37.1293 32.569 37.1293H31.1847V39.4737H30.0688V32.6369H32.569V32.6316ZM32.569 36.0686C33.227 36.0686 33.7007 35.57 33.7007 34.8752C33.7007 34.1803 33.227 33.6818 32.569 33.6818H31.1847V36.0633H32.569V36.0686Z" fill="#103559"/>
<path d="M36.4959 37.5163C36.6572 38.2014 37.286 38.5782 38.1374 38.5782C38.7217 38.5782 39.1613 38.3873 39.4618 38.0203L40.3744 38.4901C39.8736 39.1458 39.1223 39.4737 38.1319 39.4737C37.3027 39.4737 36.6239 39.2486 36.1119 38.8082C35.6 38.358 35.344 37.7903 35.344 37.1052C35.344 36.4202 35.6 35.8721 36.1008 35.4219C36.6016 34.9619 37.2582 34.7368 38.0484 34.7368C38.794 34.7368 39.4117 34.9717 39.8903 35.4317C40.3744 35.8917 40.6192 36.4593 40.6192 37.115C40.6192 37.2129 40.6081 37.3499 40.5803 37.5212H36.5014L36.4959 37.5163ZM39.5007 36.7235C39.3449 35.9944 38.7607 35.6127 38.0373 35.6127C37.2193 35.6127 36.6461 36.0385 36.4903 36.7235H39.5007Z" fill="#103559"/>
<path d="M43.7845 35.5462H42.5737V37.8971C42.5737 38.5247 42.9826 38.5141 43.7845 38.4769V39.429C42.1701 39.6258 41.5169 39.1843 41.5169 37.9024V35.5515H40.6194V34.5302H41.5169V33.4718L42.5737 33.158V34.5302H43.7845V35.5515V35.5462Z" fill="#103559"/>
<path d="M46.3868 36.6815C47.1001 36.8334 48.0244 37.1224 48.0044 38.0874C48.0044 38.5185 47.8285 38.8613 47.4869 39.1063C47.1453 39.3512 46.7183 39.4737 46.2009 39.4737C45.2866 39.4737 44.6084 39.0769 44.312 38.4205L45.171 37.9355C45.3268 38.3666 45.6684 38.587 46.1959 38.587C46.7233 38.587 46.9846 38.4156 46.9846 38.0825C46.9846 37.7935 46.5977 37.622 46.1054 37.5045C45.4122 37.333 44.4778 37.0636 44.4979 36.1133C44.4979 35.6969 44.6536 35.3638 44.9801 35.114C45.3017 34.8593 45.7136 34.7368 46.1908 34.7368C46.9594 34.7368 47.5773 35.0895 47.9039 35.6773L47.0599 36.1378C46.9042 35.7949 46.6078 35.6234 46.1908 35.6234C45.8141 35.6234 45.5177 35.7851 45.5177 36.1035C45.5177 36.4023 45.9045 36.5542 46.3868 36.6913V36.6815Z" fill="#103559"/>
<path d="M54.3348 33.6377C53.5037 33.57 53.0995 33.8876 53.0995 34.5852V34.6789H54.3348V35.6785H53.0995V39.4737H51.9667V35.6785H51.1697V34.6789H51.9667V34.5852C51.9667 33.2733 52.7864 32.5548 54.3348 32.6381V33.6377Z" fill="#103559"/>
<path d="M55.633 38.7886C55.1228 38.3286 54.8623 37.7707 54.8623 37.1052C54.8623 36.4397 55.1228 35.8819 55.633 35.4219C56.1431 34.9619 56.7727 34.7368 57.4999 34.7368C58.2272 34.7368 58.8567 34.9619 59.3669 35.4219C59.877 35.8819 60.1375 36.4397 60.1375 37.1052C60.1375 37.7707 59.877 38.3286 59.3669 38.7886C58.8567 39.2486 58.238 39.4737 57.4999 39.4737C56.7618 39.4737 56.1431 39.2486 55.633 38.7886ZM57.4999 38.5292C57.9395 38.5292 58.3086 38.3922 58.6071 38.1231C58.9056 37.8539 59.0575 37.5114 59.0575 37.1052C59.0575 36.6991 58.9056 36.3565 58.6071 36.0874C58.3086 35.8183 57.9395 35.6812 57.4999 35.6812C57.0603 35.6812 56.6913 35.8183 56.3928 36.0874C56.0943 36.3565 55.9423 36.6991 55.9423 37.1052C55.9423 37.5114 56.0943 37.8539 56.3928 38.1231C56.6913 38.3922 57.0603 38.5292 57.4999 38.5292Z" fill="#103559"/>
<path d="M61.752 35.6013C62.025 35.025 62.5493 34.7368 63.3029 34.7368V35.8237C62.8933 35.7934 62.5275 35.8894 62.2162 36.1018C61.9049 36.309 61.752 36.6528 61.752 37.128V39.4737H60.6653V34.8177H61.752V35.6013Z" fill="#103559"/>
<path d="M71.2157 37.5203C71.2157 38.0777 71.0286 38.5448 70.6494 38.9163C70.2702 39.2879 69.8101 39.4737 69.2641 39.4737H66.468V32.6316H69.0568C69.5876 32.6316 70.0427 32.8174 70.4067 33.1783C70.7809 33.5393 70.9629 33.9905 70.9629 34.5266C70.9629 35.1211 70.7404 35.5829 70.3006 35.9226C70.8669 36.2358 71.2107 36.8037 71.2107 37.515L71.2157 37.5203ZM67.5399 33.6879V35.4873H69.0568C69.532 35.4873 69.8961 35.0945 69.8961 34.5903C69.8961 34.086 69.532 33.6932 69.0568 33.6932H67.5399V33.6879ZM69.2641 38.4174C69.7596 38.4174 70.1489 37.9981 70.1489 37.4619C70.1489 36.9258 69.7596 36.5065 69.2641 36.5065H67.5399V38.4227H69.2641V38.4174Z" fill="#103559"/>
<path d="M73.4214 37.5163C73.5826 38.2014 74.2107 38.5782 75.0612 38.5782C75.6449 38.5782 76.084 38.3873 76.3842 38.0203L77.2958 38.4901C76.7956 39.1458 76.0451 39.4737 75.0557 39.4737C74.2274 39.4737 73.5493 39.2486 73.0379 38.8082C72.5264 38.358 72.2708 37.7903 72.2708 37.1052C72.2708 36.4202 72.5265 35.8721 73.0267 35.4219C73.527 34.9619 74.183 34.7368 74.9723 34.7368C75.7172 34.7368 76.3342 34.9717 76.8178 35.4317C77.3014 35.8917 77.546 36.4593 77.546 37.115C77.546 37.2129 77.5349 37.3499 77.5071 37.5212H73.4325L73.4214 37.5163ZM76.4231 36.7235C76.2675 35.9944 75.6838 35.6127 74.9612 35.6127C74.144 35.6127 73.5715 36.0385 73.4158 36.7235H76.4287H76.4231Z" fill="#103559"/>
<path d="M79.6206 36.6815C80.334 36.8334 81.2583 37.1224 81.2382 38.0874C81.2382 38.5185 81.0624 38.8613 80.7208 39.1063C80.3792 39.3512 79.9522 39.4737 79.4348 39.4737C78.5205 39.4737 77.8423 39.0769 77.5459 38.4205L78.4049 37.9355C78.5607 38.3666 78.9023 38.587 79.4297 38.587C79.9572 38.587 80.2184 38.4156 80.2184 38.0825C80.2184 37.7935 79.8316 37.622 79.3393 37.5045C78.6461 37.333 77.7117 37.0636 77.7318 36.1133C77.7318 35.6969 77.8875 35.3638 78.214 35.114C78.5355 34.8593 78.9475 34.7368 79.4247 34.7368C80.1933 34.7368 80.8112 35.0895 81.1378 35.6773L80.2938 36.1378C80.1381 35.7949 79.8417 35.6234 79.4247 35.6234C79.0479 35.6234 78.7516 35.7851 78.7516 36.1035C78.7516 36.4023 79.1384 36.5542 79.6206 36.6913V36.6815Z" fill="#103559"/>
<path d="M84.9313 35.5462H83.7225V37.8971C83.7225 38.5247 84.1307 38.5141 84.9313 38.4769V39.429C83.3195 39.6258 82.6674 39.1843 82.6674 37.9024V35.5515H81.7661V34.5302H82.6674V33.4718L83.7225 33.158V34.5302H84.9313V35.5515V35.5462Z" fill="#103559"/>
<path d="M24.9886 3.21448C24.8505 1.85322 24.3036 1.57886 23.2416 1.57886H18.7175C17.7246 1.57886 17.4856 1.7477 17.1086 2.83987L13.7156 13.8724L10.3226 2.83987C9.94555 1.7477 9.7066 1.57886 8.71364 1.57886H4.18428C3.12229 1.57886 2.57537 1.85322 2.43731 3.21448L0.0372224 24.8732C-0.0636662 25.6541 0.00536284 25.9654 0.690344 26.0656L5.86752 26.8149C6.65339 26.9151 6.82862 26.7463 6.92951 26.1659L8.06052 16.0198L10.4925 25.5222C10.7314 26.3031 11.0394 26.6144 11.8306 26.6144H15.6006C16.3865 26.6144 16.6998 26.3083 16.9387 25.5222L19.3388 16.0198L20.5017 26.1659C20.6026 26.7463 20.7778 26.9151 21.5637 26.8149L26.7409 26.0656C27.4258 25.9654 27.4949 25.6594 27.394 24.8732L24.9886 3.21448Z" fill="#103559"/>
<path d="M37.4542 7.36841C31.644 7.36841 28.4863 11.3508 28.4863 16.8421C28.4863 22.3334 31.644 26.3158 37.4542 26.3158C43.2644 26.3158 46.4221 22.3334 46.4221 16.8421C46.4221 11.3508 43.2644 7.36841 37.4542 7.36841ZM37.4542 20.1193C36.0596 20.1193 35.3122 18.8125 35.3122 16.8369C35.3122 14.8613 36.0596 13.5546 37.4542 13.5546C38.8489 13.5546 39.5962 14.8613 39.5962 16.8369C39.5962 18.8125 38.8489 20.1193 37.4542 20.1193Z" fill="#103559"/>
<path d="M59.452 7.37893C58.2609 7.37893 49.3491 7.61557 48.7694 8.43068C48.5322 8.70414 48.5322 9.07751 48.5322 9.71908L48.8063 24.5173C48.8379 25.874 49.1488 26.3158 50.3346 26.3158H54.4875C55.6785 26.3158 56.0158 25.874 56.0158 24.5173V14.2995C56.527 14.1312 56.6957 14.0628 57.2754 14.026C58.0554 13.9945 58.4296 14.2311 58.672 14.8727C58.8406 15.5511 58.8775 16.5713 58.8775 17.9596L58.8459 24.512C58.8459 25.8688 59.2201 26.3105 60.4111 26.3105H64.6641C65.8552 26.3105 66.1609 25.8688 66.1925 24.512L66.4665 15.4827C66.4981 13.274 66.0238 11.2389 64.9013 9.74537C63.7102 8.25188 61.9395 7.36841 59.4572 7.36841L59.452 7.37893Z" fill="#103559"/>
<path d="M75.414 9.47363H71.1391C69.9695 9.47363 69.6331 9.877 69.6331 11.2338V24.5241C69.6331 25.8757 69.9695 26.3157 71.1391 26.3157H75.4813C76.6509 26.3157 77.0184 25.8757 77.0184 24.5241L76.9511 11.2338C76.9511 9.91367 76.5836 9.47363 75.414 9.47363Z" fill="#103559"/>
<path d="M73.5895 0.526367C71.0576 0.526367 69.6331 2.08547 69.6331 4.21058C69.6331 6.33569 71.0576 7.89479 73.5895 7.89479C76.1214 7.89479 77.5459 6.33569 77.5459 4.21058C77.5459 2.08547 76.1214 0.526367 73.5895 0.526367Z" fill="#103559"/>
<path d="M91.9469 7.9196H89.3173V3.34397C89.3173 1.98862 88.9692 1.57886 87.7642 1.57886H83.6833C82.4729 1.57886 82.0927 2.02014 82.0927 3.34397V7.9196H80.0201C78.8793 7.9196 78.6008 8.12448 78.6008 9.17514V12.8735C78.6008 13.9241 78.8793 14.129 80.0201 14.129H82.0927V20.5696C82.0927 24.9088 84.4063 26.842 88.7657 26.842C90.0457 26.842 91.3256 26.7422 92.536 26.5006C93.0555 26.4007 93.1947 26.2642 93.1947 25.7546L93.0234 20.5643C93.0234 20.123 92.7824 19.9549 92.3325 20.0547C91.9522 20.1546 91.572 20.2228 91.0525 20.2228C90.051 20.2228 89.3227 19.8814 89.3227 18.4262V14.1185H91.9522C93.093 14.1185 93.3715 13.9136 93.3715 12.863V9.16463C93.3715 8.11397 93.093 7.90909 91.9522 7.90909L91.9469 7.9196Z" fill="#103559"/>
<path d="M103.394 7.36841C97.5842 7.36841 94.4265 11.3508 94.4265 16.8421C94.4265 22.3334 97.5842 26.3158 103.394 26.3158C109.205 26.3158 112.362 22.3334 112.362 16.8421C112.362 11.3508 109.205 7.36841 103.394 7.36841ZM103.394 20.1193C102 20.1193 101.252 18.8125 101.252 16.8369C101.252 14.8613 102 13.5546 103.394 13.5546C104.789 13.5546 105.536 14.8613 105.536 16.8369C105.536 18.8125 104.789 20.1193 103.394 20.1193Z" fill="#103559"/>
<path d="M114.03 8.11049C113.421 7.67074 112.422 7.92482 111.792 8.67728C111.161 9.42975 111.145 10.3972 111.75 10.837C112.359 11.2767 113.358 11.0226 113.988 10.2702C114.619 9.5177 114.634 8.55024 114.03 8.11049Z" fill="#103559"/>
<path d="M99.685 6.83124C100.401 6.72122 100.871 5.8148 100.733 4.80359C100.594 3.79238 99.9074 3.05886 99.1909 3.16888C98.4744 3.27891 98.005 4.18533 98.1433 5.19654C98.2817 6.20775 98.9685 6.94127 99.685 6.83124Z" fill="#103559"/>
<path d="M108.969 7.76084C109.96 8.26123 111.461 7.31484 112.315 5.64507C113.169 3.97529 113.06 2.21305 112.063 1.71266C111.072 1.21228 109.571 2.15866 108.717 3.82844C107.863 5.49821 107.972 7.26045 108.969 7.76084Z" fill="#103559"/>
<path d="M103.837 6.30726C104.836 6.4344 105.805 5.12591 105.998 3.38834C106.191 1.64546 105.538 0.135674 104.534 0.0085342C103.535 -0.118606 102.566 1.18988 102.373 2.92745C102.18 4.67033 102.833 6.18012 103.837 6.30726Z" fill="#103559"/>
</g>
<defs>
<clipPath id="clip0_913_1028">
<rect width="115" height="40" fill="white"/>
</clipPath>
</defs>
</svg>
