<svg width="18" height="20" viewBox="0 0 18 20" fill="none" xmlns="http://www.w3.org/2000/svg">
<path d="M2.76811 10.1406L4.66654 9.44916C4.72514 9.42576 4.79545 9.41404 4.86572 9.41404H17.0298C17.3579 9.41404 17.6157 9.67181 17.6157 9.99998V18.2422C17.6157 19.2148 16.8306 20 15.8579 20H4.13916C3.16646 20 2.38135 19.2148 2.38135 18.2422V10.6913C2.38135 10.4453 2.53373 10.2226 2.76811 10.1406Z" fill="#FC1A40"/>
<path d="M2.38135 10.6913V18.2422C2.38135 19.2148 3.16646 20 4.13916 20H9.99854V9.41404H4.86572C4.79541 9.41404 4.7251 9.42576 4.66654 9.44916L2.76811 10.1406C2.53373 10.2226 2.38135 10.4453 2.38135 10.6913Z" fill="#C60034"/>
<path d="M2.5921 3.81984C2.79128 3.01125 3.38898 2.37848 4.19757 2.12063C4.99445 1.87449 5.84996 2.05031 6.47101 2.61277L7.83043 3.80813L8.09992 2.0152C8.22882 1.19488 8.75617 0.503438 9.54128 0.175352C9.69363 0.116719 9.84597 0.0698442 9.99831 0.0464067C10.6428 -0.0824995 11.3108 0.0581254 11.8499 0.456602C12.5648 0.972227 12.928 1.83941 12.8109 2.70656C12.6819 3.57375 12.096 4.31203 11.264 4.605L9.99831 5.06203L8.43972 5.63625C8.428 5.63625 8.428 5.63625 8.428 5.63625L5.72097 6.63231C5.45148 6.72609 5.17023 6.77301 4.9007 6.77301C4.3264 6.77301 3.76394 6.56199 3.31863 6.16359C2.66242 5.57766 2.38117 4.67527 2.5921 3.81984Z" fill="#FE9923"/>
<path d="M3.31885 6.1636C3.76416 6.562 4.32666 6.77301 4.90092 6.77301C5.17041 6.77301 5.45166 6.7261 5.72119 6.63231L8.42822 5.63625C8.42822 5.63625 8.42822 5.63625 8.43994 5.63625L9.99854 5.06204V0.0463715C9.84619 0.069848 9.69385 0.116684 9.5415 0.175317C8.75639 0.503403 8.229 1.19485 8.10014 2.01516L7.83064 3.80809L6.47123 2.61274C5.85018 2.05028 4.99467 1.87446 4.19779 2.12059C3.3892 2.37844 2.79154 3.01122 2.59232 3.81981C2.38135 4.67528 2.6626 5.57766 3.31885 6.1636Z" fill="#FE8821"/>
<path d="M0.377337 9.14445L1.17421 11.3476C1.268 11.582 1.49066 11.7226 1.72503 11.7226C1.79534 11.7226 1.86566 11.7109 1.92421 11.6875L7.98284 9.48433L8.53359 7.66793L9.99843 7.99601L11.2875 8.28898L17.3461 6.08586C17.6508 5.96871 17.8031 5.62883 17.6976 5.33586L16.8891 3.13281C16.7367 2.6875 16.4085 2.33586 15.9867 2.13668C15.5648 1.9375 15.0844 1.91402 14.6391 2.07808L9.99839 3.76558L9.68194 3.88273C9.68194 3.88273 8.41636 6.17965 8.38116 6.17965C8.35769 6.17965 7.85382 5.8984 7.36163 5.62883C6.86956 5.3593 6.37734 5.07808 6.37734 5.07808L1.43206 6.88273C0.98675 7.04679 0.635187 7.37496 0.436008 7.79683C0.236712 8.21867 0.213312 8.69918 0.377337 9.14445Z" fill="#FF3E75"/>
<path d="M0.377441 9.14446L1.17432 11.3476C1.26811 11.582 1.49076 11.7226 1.72514 11.7226C1.79545 11.7226 1.86576 11.7109 1.92432 11.6875L7.98295 9.48434L8.53369 7.66794L9.99854 7.99602V3.76559L9.68209 3.88274C9.68209 3.88274 8.4165 6.17966 8.38131 6.17966C8.35783 6.17966 7.85396 5.89841 7.36178 5.62884C6.86967 5.35931 6.37744 5.07809 6.37744 5.07809L1.43217 6.88274C0.986856 7.04681 0.635293 7.37497 0.436113 7.79684C0.236816 8.21868 0.213418 8.69919 0.377441 9.14446Z" fill="#FC1A40"/>
<path d="M11.7563 9.41404V20H8.24072V9.41404H11.7563Z" fill="#FCBF29"/>
<path d="M9.68213 3.88274L9.99857 4.74993L11.2876 8.28903L9.99857 8.75782L8.53373 9.28517L7.98299 9.48435L6.37744 5.07809L9.68213 3.88274Z" fill="#FCBF29"/>
<path d="M8.24072 9.41404H9.99854V20H8.24072V9.41404Z" fill="#FE9923"/>
<path d="M6.37744 5.07809L7.98295 9.48435L8.53369 9.28513L9.99854 8.75778V4.74993L9.68213 3.88274L6.37744 5.07809Z" fill="#FE9923"/>
</svg>
