<svg width="20" height="20" viewBox="0 0 20 20" fill="none" xmlns="http://www.w3.org/2000/svg">
<path d="M8 7V13L13 10L8 7Z" fill="#003459"/>
<path d="M8 7L8.38587 6.35688C8.15417 6.21786 7.86561 6.21422 7.63048 6.34735C7.39534 6.48048 7.25 6.7298 7.25 7H8ZM8 13H7.25C7.25 13.2702 7.39534 13.5195 7.63048 13.6526C7.86561 13.7858 8.15417 13.7821 8.38587 13.6431L8 13ZM13 10L13.3859 10.6431C13.6118 10.5076 13.75 10.2634 13.75 10C13.75 9.73655 13.6118 9.49242 13.3859 9.35688L13 10ZM10 18.25C5.44365 18.25 1.75 14.5563 1.75 10H0.25C0.25 15.3848 4.61522 19.75 10 19.75V18.25ZM1.75 10C1.75 5.44365 5.44365 1.75 10 1.75V0.25C4.61522 0.25 0.25 4.61522 0.25 10H1.75ZM10 1.75C14.5563 1.75 18.25 5.44365 18.25 10H19.75C19.75 4.61522 15.3848 0.25 10 0.25V1.75ZM18.25 10C18.25 14.5563 14.5563 18.25 10 18.25V19.75C15.3848 19.75 19.75 15.3848 19.75 10H18.25ZM7.25 7V13H8.75V7H7.25ZM8.38587 13.6431L13.3859 10.6431L12.6141 9.35688L7.61413 12.3569L8.38587 13.6431ZM13.3859 9.35688L8.38587 6.35688L7.61413 7.64312L12.6141 10.6431L13.3859 9.35688Z" fill="#003459"/>
</svg>
